<svg id="Layer_1" data-name="Layer 1" xmlns="http://www.w3.org/2000/svg" viewBox="0 0 936.56 170.18"><defs><style>.cls-1{fill:#404041;}.cls-2{fill:none;stroke:#e57200;stroke-miterlimit:10;stroke-width:5.5px;}.cls-3,.cls-4{fill:#9caaab;}.cls-4{font-size:55.87px;font-family:Klavika-Medium, Klavika;}</style></defs><title>ACT logo working files</title><path class="cls-1" d="M106.77,222.73H69.24l-6.38,21H42.8L74.71,142.49h26.75L133.37,243.7H113.31ZM74,206.16h28L88.08,158.3Z" transform="translate(-42.8 -110.27)"/><path class="cls-1" d="M189.14,170.3c0-18.54,10.79-29.33,36-29.33a115,115,0,0,1,27.51,3.34l-2.13,16.57a149.12,149.12,0,0,0-24.77-2.58c-13.22,0-17.47,4.55-17.47,15.34v38.91c0,10.78,4.25,15.34,17.47,15.34a149.12,149.12,0,0,0,24.77-2.58l2.13,16.57a115,115,0,0,1-27.51,3.34c-25.22,0-36-10.79-36-29.33Z" transform="translate(-42.8 -110.27)"/><path class="cls-1" d="M341.56,159.36H313.29V142.49H389v16.87H360.71V243.7H341.56Z" transform="translate(-42.8 -110.27)"/><line class="cls-2" x1="401.25" x2="401.25" y2="170.18"/><path class="cls-3" d="M503.37,149.42H493v-6.21H520.8v6.21H510.41v31h-7Z" transform="translate(-42.8 -110.27)"/><path class="cls-3" d="M542.2,180.42v-19c0-1.46-.62-2.18-2.18-2.18a18.72,18.72,0,0,0-7.1,2.29v18.88h-6.81V142.1l6.81-.95v14.13a24.08,24.08,0,0,1,10-2.62c4.52,0,6.14,3.18,6.14,8v19.72Z" transform="translate(-42.8 -110.27)"/><path class="cls-3" d="M567.45,175.39a28.63,28.63,0,0,0,8.32-1.28l1.06,5.14a29.27,29.27,0,0,1-10,1.73c-8.54,0-11.5-4-11.5-10.5v-7.21c0-5.75,2.57-10.61,11.28-10.61s10.67,5.08,10.67,10.94v5.81H562.14v1.4C562.14,174.11,563.32,175.39,567.45,175.39Zm-5.31-11.45h8.66V162.6c0-2.57-.78-4.36-4.13-4.36s-4.53,1.79-4.53,4.36Z" transform="translate(-42.8 -110.27)"/><path class="cls-3" d="M622.76,169.53c0,6.2-3.58,11.45-14.08,11.45s-14.08-5.25-14.08-11.45V154.11c0-6.2,3.58-11.45,14.08-11.45s14.08,5.25,14.08,11.45Zm-21.12-.4c0,3.52,1.79,5.65,7,5.65s7-2.13,7-5.65V154.5c0-3.52-1.79-5.64-7-5.64s-7,2.12-7,5.64Z" transform="translate(-42.8 -110.27)"/><path class="cls-3" d="M653.09,171.37c0,6-2.68,9.61-9,9.61a38.09,38.09,0,0,1-7.26-.78v11.22l-6.82,1V153.21h5.42l.67,2.29a14.33,14.33,0,0,1,8.6-2.84c5.48,0,8.38,3.24,8.38,9.44Zm-16.25,3.07a30.33,30.33,0,0,0,6,.73c2.46,0,3.41-1.17,3.41-3.63v-9.61c0-2.24-.84-3.47-3.35-3.47a9.63,9.63,0,0,0-6.09,2.46Z" transform="translate(-42.8 -110.27)"/><path class="cls-3" d="M670.69,175.39a28.65,28.65,0,0,0,8.33-1.28l1.06,5.14a29.27,29.27,0,0,1-10,1.73c-8.55,0-11.51-4-11.51-10.5v-7.21c0-5.75,2.57-10.61,11.29-10.61s10.67,5.08,10.67,10.94v5.81H665.39v1.4C665.39,174.11,666.56,175.39,670.69,175.39Zm-5.3-11.45H674V162.6c0-2.57-.78-4.36-4.13-4.36s-4.52,1.79-4.52,4.36Z" transform="translate(-42.8 -110.27)"/><path class="cls-3" d="M702.76,180.42v-19c0-1.46-.61-2.18-2.18-2.18a18.73,18.73,0,0,0-7.09,2.29v18.88h-6.82V153.21h5.2l.67,2.29a27.34,27.34,0,0,1,10.89-2.84c4.53,0,6.15,3.18,6.15,8v19.72Z" transform="translate(-42.8 -110.27)"/><path class="cls-3" d="M736.73,149.42H726.34v-6.21h27.82v6.21H743.77v31h-7Z" transform="translate(-42.8 -110.27)"/><path class="cls-3" d="M775.56,180.42v-19c0-1.46-.62-2.18-2.18-2.18a18.72,18.72,0,0,0-7.1,2.29v18.88h-6.81V142.1l6.81-.95v14.13a24.08,24.08,0,0,1,10-2.62c4.52,0,6.14,3.18,6.14,8v19.72Z" transform="translate(-42.8 -110.27)"/><path class="cls-3" d="M803.94,158.91a52.31,52.31,0,0,0-7.21,4v17.54h-6.81V153.21h5.75l.45,3a30.36,30.36,0,0,1,7.15-3.57Z" transform="translate(-42.8 -110.27)"/><path class="cls-3" d="M819.41,175.39a28.65,28.65,0,0,0,8.33-1.28l1.06,5.14a29.27,29.27,0,0,1-10,1.73c-8.55,0-11.51-4-11.51-10.5v-7.21c0-5.75,2.57-10.61,11.29-10.61s10.67,5.08,10.67,10.94v5.81H814.11v1.4C814.11,174.11,815.28,175.39,819.41,175.39Zm-5.3-11.45h8.65V162.6c0-2.57-.78-4.36-4.13-4.36s-4.52,1.79-4.52,4.36Z" transform="translate(-42.8 -110.27)"/><path class="cls-3" d="M855.56,180.42H850l-.5-1.84a14.87,14.87,0,0,1-8.1,2.4c-5,0-7.1-3.41-7.1-8.1,0-5.53,2.41-7.66,7.94-7.66h6.53v-2.84c0-3-.83-4.08-5.19-4.08a37.46,37.46,0,0,0-7.54.84l-.84-5.2a35.58,35.58,0,0,1,9.33-1.28c8.54,0,11.06,3,11.06,9.83Zm-6.82-10.28h-5c-2.23,0-2.84.61-2.84,2.68,0,1.9.61,2.74,2.73,2.74a10.67,10.67,0,0,0,5.14-1.4Z" transform="translate(-42.8 -110.27)"/><path class="cls-3" d="M877.29,179.92a19,19,0,0,1-6,1.06c-5,0-7.48-2.35-7.48-7.21V158.63h-4.08v-5.42h4.08v-6.75l6.81-1v7.71h7l-.45,5.42h-6.54v14.25a2.15,2.15,0,0,0,2.46,2.4,12.89,12.89,0,0,0,3.41-.56Z" transform="translate(-42.8 -110.27)"/><text class="cls-4" transform="translate(847.69 70.15)"> </text><path class="cls-3" d="M503.09,247.46h-7V210.25h7Z" transform="translate(-42.8 -110.27)"/><path class="cls-3" d="M527.56,247.46v-19c0-1.45-.62-2.17-2.18-2.17a18.68,18.68,0,0,0-7.09,2.29v18.88h-6.82V220.25h5.2l.67,2.29a27.32,27.32,0,0,1,10.89-2.85c4.52,0,6.15,3.19,6.15,8.05v19.72Z" transform="translate(-42.8 -110.27)"/><path class="cls-3" d="M556.39,247a19,19,0,0,1-6,1.06c-5,0-7.49-2.35-7.49-7.21V225.67h-4.07v-5.42h4.07v-6.76l6.82-1v7.71h7l-.44,5.42h-6.54v14.25a2.15,2.15,0,0,0,2.46,2.4,13,13,0,0,0,3.41-.56Z" transform="translate(-42.8 -110.27)"/><path class="cls-3" d="M572.65,242.43a28.63,28.63,0,0,0,8.32-1.28l1.06,5.14A29.27,29.27,0,0,1,572,248c-8.55,0-11.51-4-11.51-10.51v-7.2c0-5.76,2.57-10.62,11.29-10.62s10.67,5.09,10.67,10.95v5.81H567.34v1.4C567.34,241.15,568.51,242.43,572.65,242.43ZM567.34,231H576v-1.34c0-2.57-.79-4.36-4.14-4.36s-4.52,1.79-4.52,4.36Z" transform="translate(-42.8 -110.27)"/><path class="cls-3" d="M588.62,247.46V209.14l6.82-.95v39.27Z" transform="translate(-42.8 -110.27)"/><path class="cls-3" d="M603.26,247.46V209.14l6.82-.95v39.27Z" transform="translate(-42.8 -110.27)"/><path class="cls-3" d="M617.9,216.4v-7.88h6.81v7.88Zm0,31.06V220.25h6.81v27.21Z" transform="translate(-42.8 -110.27)"/><path class="cls-3" d="M640.25,240.14a2.91,2.91,0,0,0-1.62,2.18c0,.72.44,1.06,1.5,1.17,3,.34,4.7.5,7.88.84,4.41.5,5.81,2.68,5.81,6.59,0,5.81-2.12,8.1-12.29,8.1a40,40,0,0,1-10.5-1.39l.84-5.09a37.49,37.49,0,0,0,9.16,1.17c5.42,0,6.48-.39,6.48-2.17s-.5-2-2.57-2.18c-3.13-.34-4.41-.51-7.88-.9-3.85-.44-5.36-1.73-5.36-5.19a5.77,5.77,0,0,1,2.85-4.64c-2.52-1.51-3.69-4-3.69-7.32v-2.57c.11-5.64,3.07-9.05,10.95-9.05a18.76,18.76,0,0,1,4.64.56h8.38v3.41c-1,.28-2.07.56-3,.84a9.36,9.36,0,0,1,1,4.24v2.57c0,5.53-3.35,8.89-11,8.89A13,13,0,0,1,640.25,240.14Zm1.56-15c-3.35,0-4.52,1.23-4.52,3.8V231c0,2.69,1.34,3.69,4.52,3.69s4.58-1.06,4.58-3.69V229C646.39,226.4,645.22,225.17,641.81,225.17Z" transform="translate(-42.8 -110.27)"/><path class="cls-3" d="M670.75,242.43a28.58,28.58,0,0,0,8.32-1.28l1.07,5.14a29.31,29.31,0,0,1-10,1.73c-8.55,0-11.51-4-11.51-10.51v-7.2c0-5.76,2.57-10.62,11.28-10.62s10.67,5.09,10.67,10.95v5.81H665.44v1.4C665.44,241.15,666.62,242.43,670.75,242.43ZM665.44,231h8.66v-1.34c0-2.57-.78-4.36-4.13-4.36s-4.53,1.79-4.53,4.36Z" transform="translate(-42.8 -110.27)"/><path class="cls-3" d="M702.82,247.46v-19c0-1.45-.62-2.17-2.18-2.17a18.72,18.72,0,0,0-7.1,2.29v18.88h-6.81V220.25h5.19l.68,2.29a27.28,27.28,0,0,1,10.89-2.85c4.52,0,6.14,3.19,6.14,8.05v19.72Z" transform="translate(-42.8 -110.27)"/><path class="cls-3" d="M716,237.57v-7.43c0-7.32,3.18-10.45,11.73-10.45a23.46,23.46,0,0,1,6.65,1l-.84,5.59a24.36,24.36,0,0,0-5.64-.73c-3.91,0-5.09,1.17-5.09,4.52v7.55c0,3.35,1.18,4.52,5.09,4.52a22.69,22.69,0,0,0,5.64-.73l.84,5.59a22.25,22.25,0,0,1-6.65,1C719.13,248,716,244.89,716,237.57Z" transform="translate(-42.8 -110.27)"/><path class="cls-3" d="M751,242.43a28.7,28.7,0,0,0,8.33-1.28l1.06,5.14a29.31,29.31,0,0,1-10,1.73c-8.55,0-11.51-4-11.51-10.51v-7.2c0-5.76,2.57-10.62,11.28-10.62s10.67,5.09,10.67,10.95v5.81H745.73v1.4C745.73,241.15,746.9,242.43,751,242.43ZM745.73,231h8.65v-1.34c0-2.57-.78-4.36-4.13-4.36s-4.52,1.79-4.52,4.36Z" transform="translate(-42.8 -110.27)"/><path class="cls-3" d="M779,210.25h14.53c8.6,0,11.78,3.52,11.78,10.06v5.08c0,6.48-3.46,10-12.12,10h-7.15v12.07h-7Zm14.14,6.2h-7.1v12.74h7.1c4,0,5.13-1.45,5.13-4.52v-3.8C798.29,217.79,797,216.45,793.16,216.45Z" transform="translate(-42.8 -110.27)"/><path class="cls-3" d="M810.92,247.46V209.14l6.82-.95v39.27Z" transform="translate(-42.8 -110.27)"/><path class="cls-3" d="M845.73,247.46h-5.59l-.5-1.85a14.88,14.88,0,0,1-8.1,2.41c-5,0-7.1-3.41-7.1-8.1,0-5.53,2.41-7.66,7.94-7.66h6.53v-2.85c0-3-.84-4.07-5.19-4.07a38.37,38.37,0,0,0-7.55.83l-.83-5.19a35.58,35.58,0,0,1,9.33-1.29c8.54,0,11.06,3,11.06,9.84Zm-6.82-10.28h-5c-2.23,0-2.84.61-2.84,2.68,0,1.9.61,2.74,2.73,2.74a10.67,10.67,0,0,0,5.14-1.4Z" transform="translate(-42.8 -110.27)"/><path class="cls-3" d="M867.46,247a19,19,0,0,1-6,1.06c-5,0-7.48-2.35-7.48-7.21V225.67h-4.08v-5.42H854v-6.76l6.81-1v7.71h7l-.45,5.42h-6.54v14.25a2.15,2.15,0,0,0,2.46,2.4,12.89,12.89,0,0,0,3.41-.56Z" transform="translate(-42.8 -110.27)"/><path class="cls-3" d="M888.47,214.05a20,20,0,0,0-3.91-.44c-2.68,0-3.08,1.17-3.08,3.24v3.4h6.93l-.39,5.42h-6.54v21.79h-6.81V225.67h-4.36v-5.42h4.36v-3.8c0-5.64,2.62-8.43,8.66-8.43a21.63,21.63,0,0,1,5.86.78Z" transform="translate(-42.8 -110.27)"/><path class="cls-3" d="M903.33,248c-9.33,0-11.84-5.14-11.84-10.73v-6.87c0-5.59,2.51-10.73,11.84-10.73s11.84,5.14,11.84,10.73v6.87C915.17,242.88,912.66,248,903.33,248Zm0-22.52c-3.63,0-5,1.62-5,4.7v7.31c0,3.08,1.4,4.7,5,4.7s5-1.62,5-4.7V230.2C908.36,227.12,907,225.5,903.33,225.5Z" transform="translate(-42.8 -110.27)"/><path class="cls-3" d="M935.79,226a52.31,52.31,0,0,0-7.21,4v17.54h-6.81V220.25h5.75l.45,3a30.36,30.36,0,0,1,7.15-3.58Z" transform="translate(-42.8 -110.27)"/><path class="cls-3" d="M956.46,247.46v-19c0-1.45-.62-2.17-2.18-2.17a18.62,18.62,0,0,0-7.09,2.29v18.88h-6.82V220.25h5.2l.67,2.29a27.32,27.32,0,0,1,10.89-2.85c2.62,0,4.25,1.07,5.14,2.91a26.6,26.6,0,0,1,11-2.91c4.52,0,6.14,3.19,6.14,8.05v19.72h-6.81v-19c0-1.45-.62-2.17-2.18-2.17a18,18,0,0,0-7.1,2.29v18.88Z" transform="translate(-42.8 -110.27)"/></svg>